# xmcd
#
# Track frame offsets:
#	150
#	16632
#	31205
#	48992
#	67150
#	85037
#	105617
#	121080
#	138137
#	151977
#	167030
#	182040
#	200842
#	214310
#	226585
#
# Disc length: 3227
#
# Revision: 3
# Processed by: cddbd v1.5.2PL0 Copyright (c) Steve Scherf et al.
# Submitted via: kJams Pro (development) 1.0patch45.5
#
DISCID=bd0c990f
DTITLE=Various Artist - MM 6321
DYEAR=1995
DGENRE=Country
TTITLE0=Reba McEntire - We're So Good Together
TTITLE1=Rascal Flatts - This Everyday Love
TTITLE2=Lonestar - Tell Her
TTITLE3=Neal McCoy - Every Man For Himself
TTITLE4=Eric Heatherly - Swimming In Champagne
TTITLE5=Carolyn Dawn Johnson - Georgia
TTITLE6=Mark Wills - I Want To Know
TTITLE7=Chalee Tennison - Makin' Up With You
TTITLE8=Montgomery Gentry - All Night Long
TTITLE9=Tim McGraw - Seventeen
TTITLE10=Andy Criggs - You Made Me That Way
TTITLE11=Jo Dee Messina - Bring On The Rain
TTITLE12=Clark Family Experience - Meanwhile Back At The Ranch
TTITLE13=Alan Jackson - Www.Memory
TTITLE14=Darryl Worley - A Good Day To Run
EXTD=MediaType: Karaoke CD+G Producer: Music Maestro
EXTT0=
EXTT1=
EXTT2=
EXTT3=
EXTT4=
EXTT5=
EXTT6=
EXTT7=
EXTT8=
EXTT9=
EXTT10=
EXTT11=
EXTT12=
EXTT13=
EXTT14=
PLAYORDER=
